<mxfile host="app.diagrams.net" modified="2023-06-20T06:54:51.801Z" agent="Mozilla/5.0 (Windows NT 10.0; Win64; x64) AppleWebKit/537.36 (KHTML, like Gecko) Chrome/114.0.0.0 Safari/537.36" version="21.5.0" etag="rhNenNAfEPEL9NeRrK5D" type="github">
  <diagram name="Page-1" id="KQt-c5H6j19kWcB_7a7h">
    <mxGraphModel>
      <root>
        <mxCell id="0" />
        <mxCell id="1" parent="0" />
      </root>
    </mxGraphModel>
  </diagram>
</mxfile>
